<?xml version="1.0" standalone="no"?>
<!DOCTYPE svg PUBLIC "-//W3C//DTD SVG 20010904//EN"
 "http://www.w3.org/TR/2001/REC-SVG-20010904/DTD/svg10.dtd">
<svg version="1.0" xmlns="http://www.w3.org/2000/svg"
 width="225.000000pt" height="225.000000pt" viewBox="0 0 225.000000 225.000000"
 preserveAspectRatio="xMidYMid meet">

<g transform="translate(0.000000,225.000000) scale(0.100000,-0.100000)"
fill="#000000" stroke="none">
<path d="M870 2223 c-29 -11 -62 -48 -91 -104 -38 -71 -69 -99 -140 -131 -53
-24 -58 -25 -90 -10 -20 9 -65 15 -109 16 -63 1 -84 -4 -132 -27 -110 -54
-174 -165 -165 -287 4 -70 32 -136 74 -181 22 -24 24 -32 18 -82 -6 -45 -14
-63 -46 -97 -125 -134 -36 -300 200 -374 96 -30 269 -55 389 -57 l92 -1 0 -37
c0 -30 -6 -42 -30 -59 -21 -16 -30 -31 -30 -51 0 -62 70 -85 220 -70 141 14
170 31 170 96 l0 29 123 -4 c150 -4 160 -6 124 -20 -15 -6 -32 -23 -39 -37
-10 -22 -8 -30 9 -53 29 -40 74 -51 206 -51 l119 -1 30 30 c29 29 30 34 24 82
-6 45 -5 50 8 39 31 -26 66 -206 66 -341 0 -104 -17 -141 -83 -187 -115 -78
-247 -56 -247 42 0 62 57 75 105 25 52 -55 135 -30 135 40 0 72 -75 162 -145
176 -158 29 -290 -80 -288 -239 1 -115 57 -202 158 -249 41 -19 67 -23 140
-23 80 0 98 4 157 32 201 94 280 282 250 593 -7 63 -20 144 -30 180 l-18 65
58 68 c32 37 58 76 58 86 0 40 -32 61 -104 72 -39 5 -72 11 -74 14 -3 2 5 43
17 89 28 113 27 141 -4 162 -24 15 -31 15 -110 -5 -46 -11 -89 -21 -96 -21 -8
0 -9 23 -4 86 6 74 5 88 -11 105 -27 30 -71 24 -120 -16 -23 -19 -44 -35 -46
-35 -2 0 -4 34 -5 74 -2 90 -24 182 -60 248 -24 44 -105 131 -144 154 -8 5
-26 31 -39 57 -42 89 -107 107 -203 59 l-56 -28 -22 53 c-32 78 -68 113 -116
112 -21 0 -45 -3 -53 -6z m83 -61 c9 -10 26 -40 37 -67 37 -87 43 -95 65 -95
13 0 27 6 33 13 6 7 34 24 63 37 46 22 53 23 77 10 15 -9 37 -36 49 -61 15
-30 40 -59 72 -82 56 -40 105 -107 134 -181 31 -80 35 -240 9 -344 -59 -232
-187 -365 -409 -423 -203 -53 -583 -25 -748 57 -27 13 -41 22 -31 19 96 -27
217 -40 391 -40 199 0 301 14 312 42 12 30 -13 37 -84 24 -121 -22 -259 -25
-404 -7 -187 23 -322 67 -332 108 -9 32 12 83 48 118 25 24 37 47 45 87 6 29
13 53 14 53 2 0 23 -7 46 -15 55 -19 144 -19 203 1 25 8 67 34 92 56 120 106
137 285 40 412 l-35 46 54 26 c65 31 79 45 126 132 47 86 97 114 133 74z
m-406 -243 c152 -72 185 -276 64 -396 -130 -130 -356 -72 -407 104 -43 147 41
279 201 316 32 8 97 -3 142 -24z m1136 -510 c-4 -4 -27 3 -51 15 l-42 21 47
37 48 37 3 -51 c2 -28 0 -54 -5 -59z m-58 -47 c61 -31 98 -68 160 -161 79
-119 158 -282 187 -387 19 -68 22 -105 22 -269 l1 -191 -38 -77 c-43 -86 -90
-132 -180 -171 -113 -51 -227 -40 -304 27 -152 133 -49 389 142 353 41 -8 99
-62 109 -101 12 -45 -8 -51 -53 -15 -62 50 -141 42 -173 -18 -18 -35 -14 -99
9 -130 39 -53 70 -67 141 -67 162 1 282 118 282 273 0 59 -27 244 -45 308 -8
29 -27 63 -42 78 -16 14 -43 40 -61 57 -34 33 -62 33 -62 2 1 -10 6 -47 13
-83 16 -81 12 -98 -20 -106 -30 -8 -211 1 -236 11 -23 10 -17 29 11 33 13 2
24 12 26 25 21 102 31 137 49 169 22 40 17 71 -10 66 -17 -3 -64 -82 -76 -127
-5 -19 -12 -21 -94 -20 -90 0 -188 11 -198 21 -3 3 -8 21 -11 39 -5 34 -4 34
68 68 132 61 247 204 293 364 18 63 21 64 90 29z m300 -44 c-3 -13 -14 -54
-23 -91 l-17 -68 -52 75 -51 75 62 15 c85 20 87 20 81 -6z m98 -254 c20 -4 37
-9 37 -13 0 -3 -17 -25 -38 -49 l-37 -43 -27 55 -28 56 28 0 c15 0 44 -3 65
-6z m-888 -237 c14 -51 15 -71 7 -79 -22 -22 -242 -37 -271 -19 -11 7 -7 13
18 25 28 15 31 21 31 64 0 26 4 52 8 58 7 12 173 34 183 24 4 -3 14 -36 24
-73z"/>
<path d="M1015 1937 c-129 -51 -199 -150 -199 -282 0 -87 28 -155 87 -213 135
-132 346 -114 457 40 77 106 67 267 -24 375 -15 17 -54 46 -88 62 -52 26 -72
31 -132 30 -39 0 -84 -6 -101 -12z m200 -61 c97 -45 152 -139 142 -244 -6 -70
-24 -109 -73 -156 -109 -106 -298 -82 -378 48 -38 61 -47 154 -21 221 19 51
97 126 147 142 58 19 129 15 183 -11z"/>
<path d="M1115 1615 c-36 -35 -37 -87 -2 -122 54 -54 147 -16 147 60 0 76 -93
115 -145 62z"/>
<path d="M496 1225 c-19 -49 8 -100 40 -75 24 20 15 84 -12 88 -13 2 -24 -4
-28 -13z"/>
<path d="M586 1225 c-19 -49 8 -100 40 -75 24 20 15 84 -12 88 -13 2 -24 -4
-28 -13z"/>
<path d="M305 1705 c-36 -35 -37 -87 -2 -122 54 -54 147 -16 147 60 0 76 -93
115 -145 62z"/>
</g>
</svg>
